# xmcd
#
# Track frame offsets:
#	183
#	12573
#	22118
#	33425
#	53185
#	60355
#	71838
#	82780
#	93355
#	105030
#	121058
#	129435
#	139940
#	154498
#	166343
#	178705
#	188280
#	199555
#	219375
#	226535
#	237990
#	248848
#	259453
#	270480
#	286443
#	294848
#	305345
#	319640
#
# Disc length: 4418 seconds
#
# Revision: 1
# Processed by: cddbd v1.5.1PL0 Copyright (c) Steve Scherf et al.
# Submitted via: audiograbber 1.83.01
#
DISCID=7811401c
DTITLE=Pierre CHENE - Dessine-moi un sourire
DYEAR=1995
DGENRE=Chanson
TTITLE0=Moi, j'aime bien la fessée
TTITLE1=J'veux une machine
TTITLE2=Dessine-moi un sourire
TTITLE3=C'était une petite planète
TTITLE4=Le poulet de Philomène
TTITLE5=Les boîtes à musique
TTITLE6=On n'est pas jaloux
TTITLE7=D'où vient le père Noël ?
TTITLE8=L'araignée de Jacquote
TTITLE9=Bateau peut couler
TTITLE10=Un petit flocon de neige
TTITLE11=Riquiqui Johnny
TTITLE12=Elephant Fanfan
TTITLE13=Un petit indien des andes
TTITLE14=Moi j'aime bien la fessée (instrumental)
TTITLE15=J'veux une machine (instrumental)
TTITLE16=Dessine-moi un sourire (instrumental)
TTITLE17=C'était une petite planète (instrumental)
TTITLE18=Le poulet de Philomène (instrumental)
TTITLE19=Les boîtes à musique (instrumental)
TTITLE20=On n'est pas jaloux (instrumental)
TTITLE21=D'où vient le père Noël ? (instrumental)
TTITLE22=L'araignée de Jacquote (instrumental)
TTITLE23=Bateau peut couler (instrumental)
TTITLE24=Un petit flocon de neige (instrumental)
TTITLE25=Riquiqui Johnny (instrumental)
TTITLE26=Elephant Fanfan (instrumental)
TTITLE27=Un petit indien des andes (instrumental)
EXTD=
EXTT0=
EXTT1=
EXTT2=
EXTT3=
EXTT4=
EXTT5=
EXTT6=
EXTT7=
EXTT8=
EXTT9=
EXTT10=
EXTT11=
EXTT12=
EXTT13=
EXTT14=
EXTT15=
EXTT16=
EXTT17=
EXTT18=
EXTT19=
EXTT20=
EXTT21=
EXTT22=
EXTT23=
EXTT24=
EXTT25=
EXTT26=
EXTT27=
PLAYORDER=
